<?xml version="1.0" encoding="UTF-8" standalone="no"?>
<!-- Created with Inkscape (http://www.inkscape.org/) -->

<svg
   xmlns:dc="http://purl.org/dc/elements/1.1/"
   xmlns:cc="http://creativecommons.org/ns#"
   xmlns:rdf="http://www.w3.org/1999/02/22-rdf-syntax-ns#"
   xmlns:svg="http://www.w3.org/2000/svg"
   xmlns="http://www.w3.org/2000/svg"
   xmlns:sodipodi="http://sodipodi.sourceforge.net/DTD/sodipodi-0.dtd"
   xmlns:inkscape="http://www.inkscape.org/namespaces/inkscape"
   id="svg4136"
   version="1.1"
   inkscape:version="0.91 r13725"
   xml:space="preserve"
   width="1488.1875"
   height="1052.3625"
   viewBox="0 0 1488.1875 1052.3625"
   sodipodi:docname="Logo-vectorisé-plus petit.svg"><metadata
     id="metadata4142"><rdf:RDF><cc:Work
         rdf:about=""><dc:format>image/svg+xml</dc:format><dc:type
           rdf:resource="http://purl.org/dc/dcmitype/StillImage" /><dc:title></dc:title></cc:Work></rdf:RDF></metadata><defs
     id="defs4140"><clipPath
       clipPathUnits="userSpaceOnUse"
       id="clipPath4150"><path
         d="m 0,841.89 1190.55,0 L 1190.55,0 0,0 0,841.89 Z"
         id="path4152"
         inkscape:connector-curvature="0" /></clipPath></defs><sodipodi:namedview
     pagecolor="#ffffff"
     bordercolor="#666666"
     borderopacity="1"
     objecttolerance="10"
     gridtolerance="10"
     guidetolerance="10"
     inkscape:pageopacity="0"
     inkscape:pageshadow="2"
     inkscape:window-width="1366"
     inkscape:window-height="706"
     id="namedview4138"
     showgrid="false"
     inkscape:zoom="0.50060896"
     inkscape:cx="734.42068"
     inkscape:cy="526.18127"
     inkscape:window-x="-8"
     inkscape:window-y="-8"
     inkscape:window-maximized="1"
     inkscape:current-layer="g4144" /><g
     id="g4144"
     inkscape:groupmode="layer"
     inkscape:label="Logo-vectorisé"
     transform="matrix(1.25,0,0,-1.25,0,1052.3625)"><g
       id="g4146"
       transform="matrix(1.2858085,0,0,1.311362,-627.13307,203.20841)"><g
         id="g4148"
         clip-path="url(#clipPath4150)"><g
           id="g4154"
           transform="translate(497.6845,358.551)"><path
             d="M 0,0 0.708,0 C 1.167,0 1.455,0.028 1.569,0.083 1.683,0.139 1.772,0.234 1.837,0.37 1.902,0.506 1.935,0.675 1.935,0.878 1.935,1.106 1.892,1.29 1.807,1.431 1.721,1.57 1.601,1.659 1.446,1.696 1.368,1.712 1.135,1.72 0.747,1.72 L 0,1.72 0,0 Z m -0.958,-3.909 0,6.774 2.016,0 c 0.506,0 0.875,-0.06 1.105,-0.182 C 2.392,2.562 2.576,2.345 2.714,2.033 2.852,1.723 2.921,1.366 2.921,0.966 2.921,0.458 2.816,0.038 2.607,-0.293 2.398,-0.624 2.085,-0.833 1.669,-0.919 1.876,-1.092 2.047,-1.281 2.182,-1.487 2.316,-1.694 2.499,-2.061 2.727,-2.588 l 0.579,-1.321 -1.145,0 -0.692,1.474 c -0.246,0.527 -0.414,0.859 -0.505,0.996 -0.09,0.137 -0.187,0.231 -0.288,0.282 -0.101,0.051 -0.262,0.076 -0.482,0.076 l -0.194,0 0,-2.828 -0.958,0 z"
             style="fill:#050606;fill-opacity:1;fill-rule:nonzero;stroke:none"
             id="path4156"
             inkscape:connector-curvature="0" /></g><g
           id="g4158"
           transform="translate(504.353,357.3225)"><path
             d="M 0,0 -0.653,2.514 -1.294,0 0,0 Z m 1.763,-2.681 -1.042,0 -0.414,1.539 -1.895,0 -0.392,-1.539 -1.016,0 1.848,6.775 1.012,0 1.899,-6.775 z"
             style="fill:#050606;fill-opacity:1;fill-rule:nonzero;stroke:none"
             id="path4160"
             inkscape:connector-curvature="0" /></g><g
           id="g4162"
           transform="translate(506.9648,354.6418)"><path
             d="m 0,0 0,6.774 0.932,0 1.941,-4.524 0,4.524 0.889,0 L 3.762,0 2.801,0 0.89,4.418 0.89,0 0,0 Z"
             style="fill:#050606;fill-opacity:1;fill-rule:nonzero;stroke:none"
             id="path4164"
             inkscape:connector-curvature="0" /></g><g
           id="g4166"
           transform="translate(511.8281,356.8459)"><path
             d="m 0,0 0.932,0.13 c 0.056,-0.447 0.17,-0.776 0.341,-0.984 0.171,-0.21 0.403,-0.315 0.694,-0.315 0.308,0 0.541,0.093 0.697,0.279 0.156,0.187 0.234,0.405 0.234,0.655 0,0.16 -0.032,0.296 -0.098,0.409 C 2.734,0.286 2.619,0.384 2.456,0.467 2.343,0.522 2.088,0.621 1.689,0.763 1.175,0.944 0.815,1.168 0.608,1.433 0.317,1.806 0.171,2.26 0.171,2.796 c 0,0.345 0.069,0.668 0.206,0.968 0.137,0.3 0.334,0.529 0.592,0.686 0.258,0.157 0.569,0.236 0.933,0.236 0.596,0 1.043,-0.186 1.345,-0.559 0.3,-0.373 0.458,-0.87 0.473,-1.493 L 2.763,2.574 C 2.722,2.922 2.634,3.173 2.499,3.325 2.364,3.478 2.162,3.554 1.893,3.554 1.614,3.554 1.396,3.472 1.239,3.309 1.138,3.204 1.087,3.063 1.087,2.889 1.087,2.729 1.134,2.591 1.229,2.478 1.35,2.332 1.644,2.182 2.109,2.024 2.575,1.867 2.919,1.704 3.143,1.537 3.366,1.369 3.54,1.14 3.667,0.848 3.793,0.557 3.856,0.197 3.856,-0.23 3.856,-0.619 3.781,-0.982 3.63,-1.321 3.478,-1.66 3.265,-1.912 2.989,-2.077 2.713,-2.242 2.369,-2.324 1.957,-2.324 1.358,-2.324 0.897,-2.126 0.576,-1.73 0.254,-1.335 0.062,-0.758 0,0"
             style="fill:#050606;fill-opacity:1;fill-rule:nonzero;stroke:none"
             id="path4168"
             inkscape:connector-curvature="0" /></g><path
           d="m 516.792,361.416 0.958,0 0,-6.774 -0.958,0 0,6.774 z"
           style="fill:#050606;fill-opacity:1;fill-rule:nonzero;stroke:none"
           id="path4170"
           inkscape:connector-curvature="0" /><g
           id="g4172"
           transform="translate(520.0605,354.6418)"><path
             d="m 0,0 0,5.629 -1.407,0 0,1.145 3.769,0 0,-1.145 -1.404,0 L 0.958,0 0,0 Z"
             style="fill:#050606;fill-opacity:1;fill-rule:nonzero;stroke:none"
             id="path4174"
             inkscape:connector-curvature="0" /></g><path
           d="m 523.342,361.416 0.958,0 0,-6.774 -0.958,0 0,6.774 z"
           style="fill:#050606;fill-opacity:1;fill-rule:nonzero;stroke:none"
           id="path4176"
           inkscape:connector-curvature="0" /><g
           id="g4178"
           transform="translate(526.3354,358.0334)"><path
             d="m 0,0 c 0,-0.767 0.124,-1.349 0.372,-1.744 0.248,-0.396 0.563,-0.594 0.945,-0.594 0.381,0 0.695,0.196 0.939,0.589 0.245,0.393 0.368,0.982 0.368,1.768 0,0.776 -0.12,1.355 -0.358,1.737 C 2.028,2.139 1.711,2.329 1.317,2.329 0.922,2.329 0.604,2.136 0.362,1.749 0.121,1.362 0,0.779 0,0 m -0.986,-0.046 c 0,0.691 0.072,1.27 0.216,1.737 0.108,0.345 0.255,0.656 0.442,0.929 0.186,0.275 0.39,0.478 0.613,0.61 0.295,0.179 0.636,0.268 1.022,0.268 0.699,0 1.258,-0.31 1.677,-0.929 0.42,-0.619 0.63,-1.48 0.63,-2.583 0,-1.093 -0.209,-1.949 -0.625,-2.567 -0.416,-0.617 -0.972,-0.926 -1.669,-0.926 -0.705,0 -1.266,0.307 -1.682,0.922 -0.416,0.614 -0.624,1.461 -0.624,2.539"
             style="fill:#050606;fill-opacity:1;fill-rule:nonzero;stroke:none"
             id="path4180"
             inkscape:connector-curvature="0" /></g><g
           id="g4182"
           transform="translate(531.037,354.6418)"><path
             d="m 0,0 0,6.774 0.932,0 1.941,-4.524 0,4.524 0.889,0 L 3.762,0 2.801,0 0.89,4.418 0.89,0 0,0 Z"
             style="fill:#050606;fill-opacity:1;fill-rule:nonzero;stroke:none"
             id="path4184"
             inkscape:connector-curvature="0" /></g><g
           id="g4186"
           transform="translate(545.1862,354.528)"><path
             d="m 0,0 0,6.774 0.932,0 1.941,-4.524 0,4.524 0.889,0 L 3.762,0 2.801,0 0.89,4.418 0.89,0 0,0 Z"
             style="fill:#050606;fill-opacity:1;fill-rule:nonzero;stroke:none"
             id="path4188"
             inkscape:connector-curvature="0" /></g><g
           id="g4190"
           transform="translate(550.2922,354.528)"><path
             d="m 0,0 0,6.774 3.517,0 0,-1.145 -2.559,0 0,-1.502 2.38,0 0,-1.142 -2.38,0 0,-1.843 2.649,0 L 3.607,0 0,0 Z"
             style="fill:#050606;fill-opacity:1;fill-rule:nonzero;stroke:none"
             id="path4192"
             inkscape:connector-curvature="0" /></g><g
           id="g4194"
           transform="translate(556.0031,358.4372)"><path
             d="M 0,0 0.708,0 C 1.167,0 1.455,0.028 1.569,0.083 1.683,0.139 1.772,0.234 1.837,0.37 1.902,0.506 1.935,0.675 1.935,0.878 1.935,1.106 1.892,1.29 1.807,1.431 1.721,1.57 1.601,1.659 1.446,1.696 1.368,1.712 1.135,1.72 0.747,1.72 L 0,1.72 0,0 Z m -0.958,-3.909 0,6.774 2.016,0 c 0.506,0 0.875,-0.06 1.105,-0.182 C 2.392,2.562 2.576,2.345 2.714,2.033 2.852,1.723 2.921,1.366 2.921,0.966 2.921,0.458 2.816,0.038 2.607,-0.293 2.398,-0.624 2.085,-0.833 1.669,-0.919 1.876,-1.092 2.047,-1.281 2.182,-1.487 2.316,-1.694 2.499,-2.061 2.727,-2.588 l 0.579,-1.321 -1.145,0 -0.692,1.474 c -0.246,0.527 -0.414,0.859 -0.505,0.996 -0.09,0.137 -0.187,0.231 -0.288,0.282 -0.101,0.051 -0.262,0.076 -0.482,0.076 l -0.194,0 0,-2.828 -0.958,0 z"
             style="fill:#050606;fill-opacity:1;fill-rule:nonzero;stroke:none"
             id="path4196"
             inkscape:connector-curvature="0" /></g><g
           id="g4198"
           transform="translate(562.364,357.0193)"><path
             d="m 0,0 0,1.141 2.064,0 0,-2.699 C 1.864,-1.835 1.573,-2.079 1.192,-2.29 0.812,-2.501 0.426,-2.606 0.036,-2.606 c -0.496,0 -0.929,0.148 -1.297,0.445 -0.369,0.298 -0.646,0.723 -0.832,1.275 -0.185,0.554 -0.278,1.156 -0.278,1.805 0,0.706 0.103,1.333 0.31,1.881 0.207,0.549 0.511,0.969 0.91,1.262 0.304,0.224 0.682,0.336 1.135,0.336 0.589,0 1.049,-0.175 1.38,-0.528 C 1.695,3.517 1.908,3.029 2.002,2.407 L 1.052,2.153 C 0.985,2.485 0.859,2.748 0.675,2.94 0.49,3.134 0.26,3.229 -0.016,3.229 -0.435,3.229 -0.767,3.04 -1.014,2.661 -1.261,2.282 -1.384,1.72 -1.384,0.975 c 0,-0.804 0.125,-1.408 0.375,-1.81 0.25,-0.401 0.578,-0.602 0.983,-0.602 0.201,0 0.402,0.055 0.604,0.168 0.201,0.113 0.374,0.248 0.519,0.409 L 1.097,0 0,0 Z"
             style="fill:#050606;fill-opacity:1;fill-rule:nonzero;stroke:none"
             id="path4200"
             inkscape:connector-curvature="0" /></g><g
           id="g4202"
           transform="translate(566.8586,361.6911)"><path
             d="m 0,0 0.446,1.381 1.019,0 L 0.576,0 0,0 Z m -1.216,-7.163 0,6.774 3.516,0 0,-1.145 -2.559,0 0,-1.502 2.381,0 0,-1.142 -2.381,0 0,-1.843 2.65,0 0,-1.142 -3.607,0 z"
             style="fill:#050606;fill-opacity:1;fill-rule:nonzero;stroke:none"
             id="path4204"
             inkscape:connector-curvature="0" /></g><g
           id="g4206"
           transform="translate(571.4601,354.528)"><path
             d="m 0,0 0,5.629 -1.407,0 0,1.145 3.769,0 0,-1.145 -1.404,0 L 0.958,0 0,0 Z"
             style="fill:#050606;fill-opacity:1;fill-rule:nonzero;stroke:none"
             id="path4208"
             inkscape:connector-curvature="0" /></g><path
           d="m 574.742,361.302 0.958,0 0,-6.774 -0.958,0 0,6.774 z"
           style="fill:#050606;fill-opacity:1;fill-rule:nonzero;stroke:none"
           id="path4210"
           inkscape:connector-curvature="0" /><g
           id="g4212"
           transform="translate(579.9899,356.1589)"><path
             d="m 0,0 c 0.123,0.207 0.215,0.456 0.276,0.749 0.062,0.293 0.093,0.629 0.093,1.008 0,0.782 -0.121,1.366 -0.363,1.753 -0.241,0.386 -0.557,0.58 -0.947,0.58 -0.391,0 -0.707,-0.194 -0.95,-0.582 -0.242,-0.389 -0.364,-0.972 -0.364,-1.751 0,-0.792 0.122,-1.385 0.364,-1.778 0.243,-0.392 0.55,-0.588 0.92,-0.588 0.138,0 0.269,0.032 0.392,0.096 -0.194,0.182 -0.392,0.324 -0.592,0.425 l 0.269,0.781 C -0.588,0.539 -0.287,0.309 0,0 M 0.77,-0.771 C 1.005,-1.012 1.261,-1.203 1.537,-1.345 L 1.184,-2.311 c -0.144,0.063 -0.286,0.147 -0.424,0.255 -0.03,0.022 -0.242,0.222 -0.637,0.601 -0.31,-0.194 -0.655,-0.291 -1.032,-0.291 -0.729,0 -1.3,0.307 -1.713,0.919 -0.413,0.613 -0.619,1.474 -0.619,2.584 0,1.105 0.207,1.966 0.621,2.58 0.414,0.615 0.975,0.922 1.685,0.922 0.703,0 1.261,-0.307 1.673,-0.922 C 1.149,3.723 1.355,2.862 1.355,1.757 1.355,1.171 1.298,0.656 1.184,0.213 1.098,-0.126 0.959,-0.454 0.77,-0.771"
             style="fill:#050606;fill-opacity:1;fill-rule:nonzero;stroke:none"
             id="path4214"
             inkscape:connector-curvature="0" /></g><g
           id="g4216"
           transform="translate(582.4206,361.3025)"><path
             d="m 0,0 0.958,0 0,-3.669 c 0,-0.582 0.011,-0.96 0.035,-1.132 0.041,-0.277 0.139,-0.5 0.293,-0.668 0.154,-0.168 0.365,-0.252 0.632,-0.252 0.272,0 0.477,0.079 0.615,0.239 0.138,0.158 0.221,0.353 0.249,0.584 0.028,0.231 0.042,0.615 0.042,1.15 l 0,3.748 0.958,0 0,-3.559 C 3.782,-4.371 3.756,-4.946 3.704,-5.282 3.652,-5.617 3.557,-5.901 3.417,-6.132 3.278,-6.363 3.093,-6.547 2.86,-6.685 2.626,-6.821 2.323,-6.89 1.947,-6.89 1.495,-6.89 1.151,-6.815 0.917,-6.666 0.683,-6.517 0.498,-6.322 0.362,-6.084 0.227,-5.845 0.137,-5.595 0.094,-5.333 0.031,-4.944 0,-4.371 0,-3.613 L 0,0 Z"
             style="fill:#050606;fill-opacity:1;fill-rule:nonzero;stroke:none"
             id="path4218"
             inkscape:connector-curvature="0" /></g><g
           id="g4220"
           transform="translate(587.5427,354.528)"><path
             d="m 0,0 0,6.774 3.517,0 0,-1.145 -2.559,0 0,-1.502 2.38,0 0,-1.142 -2.38,0 0,-1.843 2.649,0 L 3.607,0 0,0 Z"
             style="fill:#050606;fill-opacity:1;fill-rule:nonzero;stroke:none"
             id="path4222"
             inkscape:connector-curvature="0" /></g><g
           id="g4224"
           transform="translate(596.7841,357.2087)"><path
             d="M 0,0 -0.653,2.514 -1.294,0 0,0 Z m 1.764,-2.681 -1.042,0 -0.414,1.539 -1.896,0 -0.391,-1.539 -1.016,0 1.847,6.775 1.012,0 1.9,-6.775 z"
             style="fill:#050606;fill-opacity:1;fill-rule:nonzero;stroke:none"
             id="path4226"
             inkscape:connector-curvature="0" /></g><g
           id="g4228"
           transform="translate(599.3798,361.3025)"><path
             d="m 0,0 0.957,0 0,-3.669 c 0,-0.582 0.013,-0.96 0.036,-1.132 0.041,-0.277 0.139,-0.5 0.293,-0.668 0.154,-0.168 0.364,-0.252 0.632,-0.252 0.272,0 0.477,0.079 0.615,0.239 0.138,0.158 0.221,0.353 0.249,0.584 0.028,0.231 0.042,0.615 0.042,1.15 l 0,3.748 0.957,0 0,-3.559 C 3.781,-4.371 3.756,-4.946 3.704,-5.282 3.652,-5.617 3.557,-5.901 3.418,-6.132 3.278,-6.363 3.093,-6.547 2.859,-6.685 2.627,-6.821 2.322,-6.89 1.947,-6.89 1.494,-6.89 1.151,-6.815 0.917,-6.666 0.683,-6.517 0.498,-6.322 0.362,-6.084 0.227,-5.845 0.137,-5.595 0.094,-5.333 0.031,-4.944 0,-4.371 0,-3.613 L 0,0 Z"
             style="fill:#050606;fill-opacity:1;fill-rule:nonzero;stroke:none"
             id="path4230"
             inkscape:connector-curvature="0" /></g><g
           id="g4232"
           transform="translate(614.0729,361.3025)"><path
             d="m 0,0 0.957,0 0,-3.669 c 0,-0.582 0.013,-0.96 0.036,-1.132 0.041,-0.277 0.139,-0.5 0.293,-0.668 0.154,-0.168 0.364,-0.252 0.632,-0.252 0.272,0 0.477,0.079 0.615,0.239 0.138,0.158 0.221,0.353 0.249,0.584 0.028,0.231 0.042,0.615 0.042,1.15 l 0,3.748 0.957,0 0,-3.559 C 3.781,-4.371 3.756,-4.946 3.704,-5.282 3.652,-5.617 3.557,-5.901 3.418,-6.132 3.278,-6.363 3.093,-6.547 2.859,-6.685 2.627,-6.821 2.322,-6.89 1.947,-6.89 1.494,-6.89 1.151,-6.815 0.917,-6.666 0.683,-6.517 0.498,-6.322 0.362,-6.084 0.227,-5.845 0.137,-5.595 0.094,-5.333 0.031,-4.944 0,-4.371 0,-3.613 L 0,0 Z"
             style="fill:#050606;fill-opacity:1;fill-rule:nonzero;stroke:none"
             id="path4234"
             inkscape:connector-curvature="0" /></g><g
           id="g4236"
           transform="translate(619.987,357.9196)"><path
             d="m 0,0 c 0,-0.767 0.124,-1.349 0.372,-1.744 0.248,-0.396 0.563,-0.594 0.944,-0.594 0.382,0 0.696,0.196 0.941,0.589 0.244,0.393 0.367,0.982 0.367,1.768 0,0.776 -0.119,1.355 -0.357,1.737 C 2.028,2.139 1.711,2.329 1.316,2.329 0.922,2.329 0.604,2.136 0.362,1.749 0.121,1.362 0,0.779 0,0 m -0.986,-0.046 c 0,0.691 0.072,1.27 0.216,1.737 0.108,0.345 0.255,0.656 0.442,0.929 0.186,0.275 0.39,0.478 0.613,0.61 0.295,0.179 0.636,0.268 1.022,0.268 0.699,0 1.257,-0.31 1.677,-0.929 0.419,-0.619 0.629,-1.48 0.629,-2.583 0,-1.093 -0.208,-1.949 -0.624,-2.567 -0.416,-0.617 -0.972,-0.926 -1.669,-0.926 -0.705,0 -1.266,0.307 -1.682,0.922 -0.416,0.614 -0.624,1.461 -0.624,2.539"
             style="fill:#050606;fill-opacity:1;fill-rule:nonzero;stroke:none"
             id="path4238"
             inkscape:connector-curvature="0" /></g><g
           id="g4240"
           transform="translate(625.7468,354.528)"><path
             d="m 0,0 0,5.629 -1.407,0 0,1.145 3.768,0 0,-1.145 -1.404,0 L 0.957,0 0,0 Z"
             style="fill:#050606;fill-opacity:1;fill-rule:nonzero;stroke:none"
             id="path4242"
             inkscape:connector-curvature="0" /></g><path
           d="m 629.028,361.302 0.957,0 0,-6.774 -0.957,0 0,6.774 z"
           style="fill:#050606;fill-opacity:1;fill-rule:nonzero;stroke:none"
           id="path4244"
           inkscape:connector-curvature="0" /><g
           id="g4246"
           transform="translate(632.1843,360.157)"><path
             d="m 0,0 0,-4.487 0.715,0 c 0.267,0 0.46,0.021 0.579,0.064 0.155,0.056 0.284,0.15 0.387,0.282 0.102,0.132 0.185,0.351 0.25,0.654 0.065,0.303 0.097,0.716 0.097,1.241 0,0.523 -0.032,0.926 -0.097,1.206 C 1.866,-0.76 1.775,-0.541 1.659,-0.384 1.543,-0.227 1.396,-0.12 1.216,-0.065 1.082,-0.022 0.82,0 0.43,0 L 0,0 Z m -0.958,1.146 1.75,0 C 1.187,1.146 1.488,1.103 1.695,1.017 1.973,0.899 2.211,0.691 2.41,0.393 2.608,0.094 2.759,-0.272 2.862,-0.705 2.966,-1.138 3.018,-1.672 3.018,-2.307 3.018,-2.864 2.97,-3.345 2.872,-3.748 2.754,-4.241 2.585,-4.64 2.364,-4.945 2.198,-5.176 1.975,-5.356 1.691,-5.485 1.48,-5.581 1.198,-5.629 0.844,-5.629 l -1.802,0 0,6.775 z"
             style="fill:#050606;fill-opacity:1;fill-rule:nonzero;stroke:none"
             id="path4248"
             inkscape:connector-curvature="0" /></g><path
           d="m 636.316,361.302 0.957,0 0,-6.774 -0.957,0 0,6.774 z"
           style="fill:#050606;fill-opacity:1;fill-rule:nonzero;stroke:none"
           id="path4250"
           inkscape:connector-curvature="0" /><g
           id="g4252"
           transform="translate(638.5173,354.528)"><path
             d="m 0,0 0,6.774 3.516,0 0,-1.145 -2.559,0 0,-1.502 2.381,0 0,-1.142 -2.381,0 0,-1.843 2.649,0 L 3.606,0 0,0 Z"
             style="fill:#050606;fill-opacity:1;fill-rule:nonzero;stroke:none"
             id="path4254"
             inkscape:connector-curvature="0" /></g><g
           id="g4256"
           transform="translate(643.277,354.528)"><path
             d="m 0,0 0,6.774 0.932,0 1.94,-4.524 0,4.524 0.89,0 L 3.762,0 2.801,0 0.889,4.418 0.889,0 0,0 Z"
             style="fill:#050606;fill-opacity:1;fill-rule:nonzero;stroke:none"
             id="path4258"
             inkscape:connector-curvature="0" /></g><g
           id="g4260"
           transform="translate(671.8777,361.7976)"><path
             d="m 0,0 0.446,1.381 1.02,0 L 0.576,0 0,0 Z m -1.216,-7.163 0,6.774 3.516,0 0,-1.145 -2.559,0 0,-1.502 2.381,0 0,-1.142 -2.381,0 0,-1.843 2.65,0 0,-1.142 -3.607,0 z"
             style="fill:#050606;fill-opacity:1;fill-rule:nonzero;stroke:none"
             id="path4262"
             inkscape:connector-curvature="0" /></g><g
           id="g4264"
           transform="translate(676.3728,358.5437)"><path
             d="M 0,0 0.709,0 C 1.168,0 1.455,0.028 1.569,0.083 1.684,0.139 1.773,0.234 1.838,0.37 1.902,0.506 1.935,0.675 1.935,0.878 1.935,1.106 1.893,1.29 1.807,1.431 1.722,1.57 1.602,1.659 1.446,1.696 1.369,1.712 1.136,1.72 0.748,1.72 L 0,1.72 0,0 Z m -0.957,-3.909 0,6.774 2.016,0 c 0.506,0 0.875,-0.06 1.104,-0.182 C 2.393,2.562 2.576,2.345 2.715,2.033 2.853,1.723 2.922,1.366 2.922,0.966 2.922,0.458 2.817,0.038 2.607,-0.293 2.398,-0.624 2.086,-0.833 1.67,-0.919 1.877,-1.092 2.048,-1.281 2.183,-1.487 2.317,-1.694 2.499,-2.061 2.728,-2.588 l 0.579,-1.321 -1.146,0 -0.692,1.474 c -0.245,0.527 -0.414,0.859 -0.504,0.996 -0.091,0.137 -0.187,0.231 -0.288,0.282 -0.102,0.051 -0.263,0.076 -0.483,0.076 l -0.194,0 0,-2.828 -0.957,0 z"
             style="fill:#050606;fill-opacity:1;fill-rule:nonzero;stroke:none"
             id="path4266"
             inkscape:connector-curvature="0" /></g><path
           d="m 680.499,361.409 0.957,0 0,-6.774 -0.957,0 0,6.774 z"
           style="fill:#050606;fill-opacity:1;fill-rule:nonzero;stroke:none"
           id="path4268"
           inkscape:connector-curvature="0" /><g
           id="g4270"
           transform="translate(684.906,357.1257)"><path
             d="m 0,0 0,1.141 2.063,0 0,-2.699 C 1.863,-1.835 1.572,-2.079 1.191,-2.29 0.812,-2.501 0.426,-2.606 0.035,-2.606 c -0.496,0 -0.929,0.148 -1.297,0.445 -0.369,0.298 -0.646,0.723 -0.831,1.275 -0.185,0.554 -0.278,1.156 -0.278,1.805 0,0.706 0.103,1.333 0.31,1.881 0.207,0.549 0.51,0.969 0.909,1.262 0.304,0.224 0.682,0.336 1.135,0.336 0.589,0 1.049,-0.175 1.38,-0.528 C 1.694,3.517 1.907,3.029 2.002,2.407 L 1.051,2.153 C 0.984,2.485 0.858,2.748 0.674,2.94 0.49,3.134 0.26,3.229 -0.017,3.229 -0.435,3.229 -0.768,3.04 -1.015,2.661 -1.262,2.282 -1.385,1.72 -1.385,0.975 c 0,-0.804 0.125,-1.408 0.375,-1.81 0.25,-0.401 0.578,-0.602 0.984,-0.602 0.201,0 0.402,0.055 0.603,0.168 0.201,0.113 0.375,0.248 0.52,0.409 L 1.097,0 0,0 Z"
             style="fill:#050606;fill-opacity:1;fill-rule:nonzero;stroke:none"
             id="path4272"
             inkscape:connector-curvature="0" /></g><g
           id="g4274"
           transform="translate(688.1941,354.6345)"><path
             d="m 0,0 0,6.774 0.932,0 1.94,-4.524 0,4.524 0.89,0 L 3.762,0 2.801,0 0.889,4.418 0.889,0 0,0 Z"
             style="fill:#050606;fill-opacity:1;fill-rule:nonzero;stroke:none"
             id="path4276"
             inkscape:connector-curvature="0" /></g><g
           id="g4278"
           transform="translate(695.8132,357.3152)"><path
             d="M 0,0 -0.653,2.514 -1.294,0 0,0 Z m 1.764,-2.681 -1.042,0 -0.414,1.539 -1.896,0 -0.391,-1.539 -1.016,0 1.847,6.775 1.012,0 1.9,-6.775 z"
             style="fill:#050606;fill-opacity:1;fill-rule:nonzero;stroke:none"
             id="path4280"
             inkscape:connector-curvature="0" /></g><g
           id="g4282"
           transform="translate(698.9919,354.6345)"><path
             d="m 0,0 0,5.629 -1.407,0 0,1.145 3.768,0 0,-1.145 -1.404,0 L 0.957,0 0,0 Z"
             style="fill:#050606;fill-opacity:1;fill-rule:nonzero;stroke:none"
             id="path4284"
             inkscape:connector-curvature="0" /></g><g
           id="g4286"
           transform="translate(610.7607,356.665)"><path
             d="m 0,0 c 0.211,0.3 0.368,0.661 0.474,1.085 0.105,0.424 0.159,0.911 0.159,1.459 0,1.133 -0.208,1.979 -0.621,2.539 -0.415,0.56 -0.956,0.84 -1.625,0.84 -0.67,0 -1.212,-0.281 -1.627,-0.843 -0.417,-0.562 -0.625,-1.407 -0.625,-2.536 0,-1.147 0.208,-2.005 0.625,-2.574 0.415,-0.568 0.94,-0.853 1.576,-0.853 0.238,0 0.461,0.047 0.672,0.14 -0.334,0.264 -0.672,0.469 -1.015,0.616 l 0.46,1.131 C -1.008,0.781 -0.492,0.447 0,0 M 1.319,-1.117 C 1.722,-1.465 2.161,-1.743 2.633,-1.948 L 2.029,-3.346 c -0.248,0.09 -0.489,0.212 -0.727,0.369 -0.05,0.031 -0.415,0.321 -1.091,0.87 -0.532,-0.282 -1.121,-0.422 -1.769,-0.422 -1.249,0 -2.228,0.444 -2.936,1.331 -0.708,0.888 -1.061,2.136 -1.061,3.742 0,1.602 0.355,2.848 1.064,3.737 0.71,0.891 1.672,1.335 2.889,1.335 1.205,0 2.159,-0.444 2.866,-1.335 C 1.97,5.392 2.323,4.146 2.323,2.544 2.323,1.696 2.224,0.95 2.029,0.308 1.881,-0.182 1.645,-0.658 1.319,-1.117"
             style="fill:#36b23f;fill-opacity:1;fill-rule:nonzero;stroke:none"
             id="path4288"
             inkscape:connector-curvature="0" /></g><g
           id="g4290"
           transform="translate(655.9971,358.6535)"><path
             d="M 0,0 -1.445,3.877 -2.861,0 0,0 Z m -0.25,6.913 -1.266,0 -1.973,2.13 2.252,0 0.987,-2.13 z m 4.15,-11.047 -2.304,0 -0.916,2.373 -4.191,0 -0.866,-2.373 -2.245,0 4.083,10.448 2.239,0 4.2,-10.448 z"
             style="fill:#36b23f;fill-opacity:1;fill-rule:nonzero;stroke:none"
             id="path4292"
             inkscape:connector-curvature="0" /></g><g
           id="g4294"
           transform="translate(664.832,363.1083)"><path
             d="m 0,0 0,-2.934 1.03,0 c 0.741,0 1.238,0.054 1.487,0.162 0.25,0.108 0.445,0.278 0.587,0.509 0.142,0.229 0.213,0.497 0.213,0.803 0,0.375 -0.1,0.687 -0.297,0.931 -0.2,0.244 -0.453,0.396 -0.758,0.457 C 2.037,-0.024 1.587,0 0.909,0 L 0,0 Z m -1.88,-8.589 0,10.337 3.018,0 c 1.143,0 1.889,-0.052 2.237,-0.155 0.533,-0.155 0.98,-0.492 1.341,-1.012 0.36,-0.52 0.541,-1.19 0.541,-2.013 0,-0.635 -0.106,-1.168 -0.313,-1.6 C 4.737,-3.465 4.474,-3.804 4.154,-4.052 3.833,-4.299 3.509,-4.461 3.177,-4.542 2.728,-4.64 2.078,-4.689 1.226,-4.689 l -1.226,0 0,-3.9 -1.88,0 z"
             style="fill:#36b23f;fill-opacity:1;fill-rule:nonzero;stroke:none"
             id="path4296"
             inkscape:connector-curvature="0" /></g><g
           id="g4298"
           transform="translate(539.9722,365.5652)"><path
             d="m 0,0 0.923,2.131 2.108,0 L 1.191,0 0,0 Z m -2.516,-11.046 0,10.447 7.274,0 0,-1.767 -5.293,0 0,-2.317 4.925,0 0,-1.759 -4.925,0 0,-2.844 5.48,0 0,-1.76 -7.461,0 z"
             style="fill:#36b23f;fill-opacity:1;fill-rule:nonzero;stroke:none"
             id="path4300"
             inkscape:connector-curvature="0" /></g><g
           id="g4302"
           transform="translate(492.5139,354.5193)"><path
             d="m 0,0 2.471,0 0,8.307 3.623,0 0,2.224 -9.726,0 0,-2.224 L 0,8.307 0,0 Z"
             style="fill:#36b23f;fill-opacity:1;fill-rule:nonzero;stroke:none"
             id="path4304"
             inkscape:connector-curvature="0" /></g><g
           id="g4306"
           transform="translate(614.4984,423.6025)"><path
             d="m 0,0 c -0.597,-1.299 -3.341,-1.606 -4.388,-2.396 -2.667,-2.013 -5.711,-3.281 -8.923,-4.152 -0.271,-0.073 -0.568,-0.044 -0.854,-0.063 -0.6,-0.284 -1.163,-0.621 -1.899,-0.317 -0.283,0.117 -0.677,-0.114 -1.005,-0.243 -0.116,-0.013 -0.232,-0.025 -0.349,-0.038 -0.18,-0.144 -0.381,-0.26 -0.615,-0.237 -0.897,0.091 -1.792,0.091 -2.69,0.002 -0.234,-0.023 -0.434,0.095 -0.608,0.249 -0.269,0 -0.537,0.006 -0.754,0.2 -0.288,0.687 0.568,0.61 0.684,1.026 0.391,0.739 1.064,1.075 1.824,1.304 0.64,0.193 1.313,0.342 1.671,1.014 0.075,0.141 0.22,0.263 0.377,0.284 1.734,0.235 2.36,1.738 3.28,2.887 0.308,0.385 0.594,0.767 1.053,0.951 1.042,0.416 1.79,1.206 2.573,1.956 0.24,0.229 0.413,0.496 0.451,0.829 0.11,0.97 0.603,1.736 1.264,2.415 0.528,0.541 0.777,1.252 1.084,1.91 0.29,0.618 -0.175,1.155 -1.007,1.303 -0.895,0.161 -1.79,-0.046 -2.688,-0.024 -1.155,0.029 -1.281,0.029 -1.561,1.093 -0.167,0.637 -0.57,0.932 -1.154,0.978 -0.957,0.075 -1.757,0.517 -2.597,0.917 -1.082,0.517 -2.301,0.531 -3.465,0.742 -0.125,0.023 -0.264,-0.018 -0.384,0.016 -1.379,0.388 -2.521,0.131 -3.301,-1.172 -0.063,-0.106 -0.227,-0.249 -0.302,-0.216 -1.1,0.484 -2.373,-0.501 -3.443,0.449 -0.416,0.369 -0.554,0.662 -0.387,1.19 0.369,1.167 0.164,1.426 -1.062,1.476 -0.129,0.005 0.032,-0.003 -0.096,10e-4 -1.781,0.062 -1.952,0.331 -1.299,2.041 0.046,0.119 0.089,0.241 -0.055,0.419 -0.488,-0.311 -1.051,-0.542 -1.511,-0.904 -0.688,-0.542 -1.275,-0.357 -1.989,0.259 -1.128,0.973 -0.956,4.248 0.29,5.062 0.689,0.451 1.536,0.631 2.393,0.583 0.287,-0.015 0.57,-0.064 0.859,0.029 1.828,0.587 2.175,0.478 3.448,-1.07 -0.034,1.06 -0.317,2.213 0.597,2.993 0.766,0.653 1.251,1.329 1.145,2.362 -0.023,0.223 0.061,0.491 0.26,0.596 0.798,0.419 1.109,1.214 1.545,1.913 0.288,0.463 0.771,0.658 1.206,0.928 0.599,0.374 0.613,0.7 0.022,1.071 -0.419,0.264 -0.921,0.466 -0.755,1.068 0.174,0.637 0.68,0.883 1.329,0.88 0.291,-10e-4 0.635,0.037 0.681,0.397 0.054,0.414 -0.306,0.565 -0.618,0.602 -0.645,0.076 -1.144,0.334 -1.543,0.856 -0.211,0.276 -0.571,0.261 -0.898,0.221 -0.483,-0.06 -0.881,0.125 -1.238,0.423 -0.651,0.543 -0.616,1.286 0.078,1.749 0.829,0.552 0.86,1.368 -0.062,1.722 -1.459,0.56 -2.823,1.331 -4.377,1.707 -1.18,0.285 -2.501,0.231 -3.528,1.063 -0.033,0.091 -0.025,0.179 0.025,0.262 2.136,1.436 4.47,2.436 6.939,3.136 4.629,1.272 9.258,1.304 13.887,0.005 3.514,-0.897 6.566,-2.684 9.396,-4.892 0.245,-0.191 0.42,-0.472 0.628,-0.712 -0.847,-0.312 -1.756,-0.385 -2.613,-0.673 -0.301,-0.101 -0.585,0.208 -0.747,0.507 -0.188,0.348 -0.115,0.891 -0.643,0.985 -0.597,0.107 -1.216,0.191 -1.806,-0.012 -0.645,-0.222 -1.206,-0.601 -1.656,-1.119 -0.202,-0.232 -0.523,-0.519 -0.161,-0.812 0.319,-0.257 0.724,-0.247 1.047,0.075 0.231,0.23 0.314,0.557 0.493,0.82 0.232,0.34 0.542,0.57 0.978,0.405 0.404,-0.152 0.452,-0.49 0.403,-0.873 -0.045,-0.35 -0.016,-0.705 -0.047,-1.057 -0.081,-0.914 -0.476,-1.312 -1.392,-1.391 -0.6,-0.051 -1.233,0.05 -1.735,-0.411 -1.674,-1.097 -1.994,0.258 -2.238,1.167 0.42,-0.436 0.302,-1.39 0.769,-2.09 0.189,-1.09 0.121,-1.264 -0.866,-1.543 -0.705,-0.199 -0.787,-0.607 -0.489,-1.155 0.413,-0.757 0.228,-1.324 -0.413,-1.846 -0.675,-0.551 -1.168,-1.279 -1.721,-1.943 -0.724,-0.867 0.034,-1.78 0.064,-2.672 0.014,-0.413 0.312,-0.837 0.607,-1.184 0.408,-0.482 0.811,-0.669 1.502,-0.372 1.953,0.837 3.211,0.388 3.736,-1.67 0.167,-0.657 0.566,-1.154 0.895,-1.683 0.555,-0.895 0.439,-1.749 0.18,-2.667 -0.46,-1.63 0.091,-3.101 0.838,-4.502 0.311,-0.582 0.913,-0.545 1.451,-0.283 1.17,0.569 1.729,1.621 1.954,2.813 0.12,0.638 0.241,1.169 0.826,1.515 0.37,0.218 0.434,0.546 0.433,0.981 -0.003,1.846 0.272,3.595 1.768,4.934 0.665,0.595 0.615,0.662 -0.197,0.904 -0.671,0.2 -1.098,0.631 -1.317,1.287 -0.037,0.677 0.178,1.119 0.961,1.027 1.023,-0.403 1.828,-0.269 2.457,0.414 0.523,0.569 0.491,0.784 -0.168,1.173 -0.386,0.228 -0.814,0.38 -1.17,0.667 -0.214,0.174 -0.39,0.355 -0.303,0.646 0.085,0.281 0.321,0.381 0.593,0.416 C 0.081,29.91 0.305,29.909 0.53,29.9 1.625,29.858 2.655,29.397 3.746,29.38 4.303,29.371 4.381,28.647 4.931,28.705 5.897,25.819 6.603,22.911 6.655,19.82 6.748,14.276 5.326,9.212 2.382,4.546 2.365,4.519 2.356,4.486 2.335,4.463 1.87,3.936 1.642,3.061 1.002,2.873 0.402,1.903 0.273,-0.432 -0.221,-0.003 L 0,0 Z"
             style="fill:#2848a3;fill-opacity:1;fill-rule:nonzero;stroke:none"
             id="path4308"
             inkscape:connector-curvature="0" /></g><g
           id="g4310"
           transform="translate(581.2528,464.9584)"><path
             d="M 0,0 C 1.954,-0.062 3.809,-0.555 5.605,-1.3 6.394,-1.627 7.199,-1.918 7.975,-2.272 9.012,-2.745 9.397,-3.751 8.936,-4.617 8.809,-4.855 8.727,-5.082 8.382,-5.018 8.175,-4.98 7.89,-4.894 7.83,-5.214 7.782,-5.47 7.88,-5.722 8.095,-5.901 c 0.281,-0.234 0.617,-0.464 0.964,-0.293 0.79,0.391 1.202,0.023 1.51,-0.643 0.162,-0.35 0.468,-0.39 0.8,-0.421 0.318,-0.029 0.685,-0.017 0.936,-0.174 0.4,-0.248 0.843,-0.635 0.689,-1.151 -0.185,-0.623 -0.815,-0.756 -1.396,-0.805 -0.205,-0.016 -0.422,0.172 -0.643,0.028 -0.185,-0.12 -0.425,-0.203 -0.466,-0.454 -0.052,-0.323 0.237,-0.321 0.429,-0.412 0.203,-0.097 0.4,-0.204 0.595,-0.316 0.368,-0.211 0.749,-0.431 0.704,-0.937 -0.047,-0.54 -0.499,-0.574 -0.902,-0.703 -0.872,-0.279 -1.552,-0.792 -1.615,-1.785 -0.022,-0.344 -0.169,-0.451 -0.429,-0.526 -0.98,-0.282 -1.193,-0.973 -0.992,-1.873 0.1,-0.445 0.122,-0.864 -0.411,-1.02 -1.066,-0.311 -1.314,-1.129 -1.327,-2.087 -0.009,-0.608 0.032,-1.217 0.055,-1.825 0.008,-0.213 -0.058,-0.404 -0.26,-0.468 -0.294,-0.092 -0.263,0.209 -0.335,0.352 -0.231,0.461 -0.508,0.892 -0.872,1.251 -0.719,0.709 -1.31,0.715 -2.15,0.019 -0.236,-0.196 -0.44,-0.178 -0.706,-0.106 -1.256,0.336 -2.501,0.027 -2.966,-0.714 -0.602,-0.961 -0.586,-3.008 0.03,-3.801 0.526,-0.676 1.667,-0.512 2.54,0.422 0.347,0.372 0.635,0.664 1.214,0.559 0.646,-0.117 0.728,-0.403 0.411,-0.899 -0.338,-0.53 -0.99,-1.102 -0.655,-1.681 0.308,-0.533 1.128,-0.206 1.72,-0.23 1.339,-0.053 1.687,-0.546 1.172,-1.765 -0.135,-0.32 -0.428,-0.646 -0.088,-0.961 0.349,-0.324 0.745,-0.631 1.287,-0.511 0.062,0.014 0.126,0.063 0.182,0.055 1.314,-0.197 2.198,0.399 2.968,1.421 0.339,0.451 0.95,0.453 1.594,0.278 1.04,-0.283 2.133,-0.399 3.211,-0.509 0.768,-0.078 1.508,-0.136 2.143,-0.652 0.644,-0.521 1.404,-0.668 2.232,-0.717 0.789,-0.047 1.484,-0.335 1.403,-1.393 -0.037,-0.492 0.118,-0.778 0.815,-0.68 1.125,0.158 2.288,0.259 3.425,0.009 1.145,-0.252 1.329,-1.454 0.833,-2.468 -0.544,-1.114 -1.85,-1.78 -1.958,-2.981 -0.121,-1.35 -1.092,-1.938 -1.794,-2.793 -0.258,-0.315 -0.518,-0.557 -0.965,-0.7 -1.095,-0.349 -1.654,-1.315 -2.338,-2.186 -0.648,-0.825 -1.259,-1.893 -2.558,-1.938 -0.218,-0.008 -0.319,-0.112 -0.393,-0.333 -0.267,-0.802 -0.918,-0.961 -1.679,-1.024 -0.791,-0.067 -1.459,-0.448 -1.946,-1.102 -0.539,-0.097 -0.908,-0.49 -1.343,-0.768 -0.127,-0.022 -0.254,-0.044 -0.381,-0.066 -0.445,0.081 -0.89,0.161 -1.335,0.242 -0.285,0.324 -0.291,0.634 -0.113,1.051 0.492,1.147 0.962,2.304 1.463,3.449 0.169,0.384 0.208,0.806 0.315,1.208 0.173,0.656 -0.066,1.105 -0.675,1.277 -1.139,0.322 -1.905,0.966 -2.232,2.136 -0.1,0.359 -0.29,0.718 -0.562,1.001 -1.611,1.671 -1.19,3.391 -0.144,5.137 0.149,0.249 0.345,0.464 0.48,0.72 0.167,0.315 0.352,0.642 0.135,0.995 -0.217,0.355 -0.568,0.225 -0.873,0.162 -1.076,-0.223 -1.876,0.462 -2.434,1.094 -1.261,1.429 -3.026,2.009 -4.506,3.051 -0.161,0.114 -0.354,0.152 -0.55,0.145 -1.749,-0.064 -3.002,0.917 -4.173,2.025 -0.39,0.369 -0.617,0.838 -0.637,1.448 -0.041,1.255 -0.975,2.119 -1.584,3.113 -0.289,0.472 -0.591,0.883 -0.61,1.466 -0.032,1.001 -0.85,1.618 -1.318,2.387 -1.034,1.701 -1.03,3.268 0.164,4.888 0.54,0.734 1.158,1.461 1.252,2.438 -0.043,0.399 0.264,0.867 -0.236,1.176 -0.033,0.167 -0.126,0.344 0.078,0.471 0.93,1.127 1.835,2.274 2.797,3.372 0.692,0.79 1.453,1.521 2.351,2.088 0.139,0.123 0.251,0.269 0.467,0.291 0.785,0.082 1.356,0.47 1.676,1.208 C -0.339,-0.163 -0.223,-0.009 0,0"
             style="fill:#ffffff;fill-opacity:1;fill-rule:nonzero;stroke:none"
             id="path4312"
             inkscape:connector-curvature="0" /></g><g
           id="g4314"
           transform="translate(574.4623,455.9528)"><path
             d="m 0,0 c -0.429,-1.001 -1.008,-1.908 -1.703,-2.743 -1.022,-1.23 -0.969,-2.86 -0.071,-4.162 0.622,-0.903 1.564,-1.707 1.428,-2.998 -0.025,-0.232 0.103,-0.439 0.271,-0.598 0.854,-0.81 1.128,-2 1.885,-2.874 0.08,-0.093 0.186,-0.255 0.155,-0.338 -0.509,-1.387 0.667,-1.942 1.425,-2.492 0.79,-0.575 1.706,-1.271 2.878,-0.874 0.297,0.101 0.602,-0.113 0.781,-0.299 0.686,-0.711 1.576,-1.018 2.453,-1.371 0.367,-0.147 0.638,-0.433 0.865,-0.747 0.618,-0.852 1.531,-1.341 2.362,-1.929 0.32,-0.226 0.655,-0.174 0.995,0.02 0.437,0.25 0.874,0.208 1.238,-0.151 0.375,-0.369 0.323,-0.828 0.147,-1.253 -0.146,-0.352 -0.321,-0.726 -0.584,-0.99 -0.908,-0.913 -0.791,-2.168 -1.149,-3.262 -0.098,-0.3 0.195,-0.526 0.39,-0.733 0.734,-0.781 1.334,-1.655 1.564,-2.705 0.189,-0.863 1.043,-0.925 1.524,-1.066 1.305,-0.385 1.435,-0.452 1.192,-1.784 -0.333,-1.824 -1.261,-3.399 -1.989,-5.059 -0.105,-0.238 -0.233,-0.454 -0.213,-0.723 -3.665,0.676 -7.027,2.098 -10.04,4.271 -5.019,3.618 -8.45,8.344 -10.153,14.365 -0.896,3.17 -1.191,6.369 -0.961,9.587 0.236,3.289 1.08,6.484 2.596,9.459 0.551,1.081 1.083,2.171 1.799,3.157 C -0.864,1.59 -0.813,1.472 -0.762,1.354 -0.644,0.826 -0.291,0.431 0,0"
             style="fill:#2848a3;fill-opacity:1;fill-rule:nonzero;stroke:none"
             id="path4316"
             inkscape:connector-curvature="0" /></g><g
           id="g4318"
           transform="translate(588.29,465.9058)"><path
             d="M 0,0 C 0.697,0.872 1.71,0.868 2.574,1.13 3.75,1.486 4.895,1.186 6.085,0.873 7.124,0.6 8.296,0.828 9.409,0.833 9.73,0.835 10.055,0.865 10.37,0.822 10.853,0.755 11.574,1.141 11.769,0.574 11.973,-0.018 11.497,-0.63 11.088,-1.102 10.451,-1.837 9.549,-2.208 8.685,-2.589 7.813,-2.975 6.922,-3.289 6.352,-4.132 6.217,-4.332 5.933,-4.57 5.7,-4.376 5.427,-4.148 5.04,-3.948 5.058,-3.487 5.076,-3.038 5.114,-2.589 5.103,-2.141 5.073,-0.929 4.537,-0.388 3.341,-0.334 2.258,-0.285 1.165,-0.359 0,0"
             style="fill:#ffffff;fill-opacity:1;fill-rule:nonzero;stroke:none"
             id="path4320"
             inkscape:connector-curvature="0" /></g><g
           id="g4322"
           transform="translate(612.8134,439.5223)"><path
             d="M 0,0 C -0.039,0.995 0.253,1.73 1.032,2.224 1.256,2.366 1.511,2.454 1.755,2.302 1.993,2.154 1.892,1.916 1.859,1.694 1.747,0.937 1.629,0.172 1.076,-0.403 0.848,-0.64 0.598,-1.074 0.236,-0.934 -0.216,-0.759 0.118,-0.243 0,0"
             style="fill:#2848a3;fill-opacity:1;fill-rule:nonzero;stroke:none"
             id="path4324"
             inkscape:connector-curvature="0" /></g><g
           id="g4326"
           transform="translate(603.981,459.6486)"><path
             d="M 0,0 C -0.254,-0.396 -0.636,-0.633 -1.066,-0.766 -1.491,-0.897 -1.708,-1.154 -1.74,-1.585 -1.909,-0.899 -1.927,-0.17 -2.344,0.495 -2.488,0.283 -2.602,0.07 -2.76,-0.102 c -0.11,-0.12 -0.288,-0.136 -0.445,-0.049 -0.164,0.092 -0.222,0.255 -0.137,0.406 0.236,0.412 0.457,0.845 0.764,1.201 0.269,0.312 0.568,0.263 0.687,-0.195 0.048,-0.184 0.035,-0.455 0.154,-0.539 0.449,-0.317 0.085,-1.087 0.536,-1.192 C -0.856,-0.551 -0.404,-0.174 0,0"
             style="fill:#2848a3;fill-opacity:1;fill-rule:nonzero;stroke:none"
             id="path4328"
             inkscape:connector-curvature="0" /></g><g
           id="g4330"
           transform="translate(612.4485,449.152)"><path
             d="m 0,0 c -0.859,0.825 -1.241,1.913 -1.63,2.992 -0.063,0.173 -0.091,0.41 0.129,0.506 0.226,0.098 0.362,-0.099 0.454,-0.259 C -0.523,2.33 0.104,1.472 0.384,0.437 0.249,0.488 0.051,0.622 -0.008,0.576 -0.221,0.411 -0.002,0.197 0,0"
             style="fill:#2848a3;fill-opacity:1;fill-rule:nonzero;stroke:none"
             id="path4332"
             inkscape:connector-curvature="0" /></g><g
           id="g4334"
           transform="translate(586.2034,460.5895)"><path
             d="M 0,0 C 0.641,-0.115 1.676,0.098 1.032,-1.183 0.997,-1.255 1.013,-1.397 1.064,-1.46 1.811,-2.393 1.339,-3.595 1.761,-4.599 1.886,-4.894 1.706,-5.101 1.485,-5.245 1.22,-5.417 0.991,-5.288 0.817,-5.069 c -0.078,0.098 -0.13,0.221 -0.176,0.34 -0.446,1.14 -1.281,1.764 -2.477,2.008 -0.444,0.091 -1.068,0.262 -1.096,0.796 -0.032,0.581 0.353,1.081 0.92,1.347 C -1.379,-0.282 -0.79,0.175 0,0"
             style="fill:#2848a3;fill-opacity:1;fill-rule:nonzero;stroke:none"
             id="path4336"
             inkscape:connector-curvature="0" /></g><g
           id="g4338"
           transform="translate(608.4025,455.9503)"><path
             d="M 0,0 C 0.568,-0.225 0.967,-0.814 1.705,-0.7 2.079,-0.642 2.642,-0.62 2.559,-1.262 2.494,-1.769 2.06,-2.04 1.576,-1.989 c -0.593,0.063 -1.231,0.146 -1.74,0.423 -0.417,0.226 -0.576,0.155 -0.735,-0.179 -0.268,-0.565 -0.76,-0.5 -1.143,-0.305 -0.626,0.319 -1.386,0.459 -1.72,1.246 -0.286,0.673 -0.896,0.432 -1.424,0.35 -0.334,-0.052 -0.798,-0.28 -0.949,0.1 -0.118,0.299 0.024,0.775 0.351,1.025 0.451,0.344 0.922,0.671 1.42,0.939 0.206,0.111 0.532,0.073 0.695,-0.172 0.426,-0.64 1.05,-0.878 1.772,-0.997 0.55,-0.09 0.575,-0.733 0.952,-1.019 0.327,-0.088 0.465,0.118 0.518,0.376 C -0.368,0.087 -0.276,0.213 0,0"
             style="fill:#2848a3;fill-opacity:1;fill-rule:nonzero;stroke:none"
             id="path4340"
             inkscape:connector-curvature="0" /></g><g
           id="g4342"
           transform="translate(613.4801,458.1669)"><path
             d="m 0,0 c 0.223,0.009 0.439,-0.062 0.426,-0.212 -0.067,-0.721 0.45,-1.149 0.767,-1.682 0.154,-0.257 0.085,-0.547 -0.244,-0.58 -0.502,-0.049 -0.98,0.117 -1.203,0.598 -0.242,0.523 -0.653,1.079 -0.112,1.662 C -0.264,-0.104 -0.098,-0.055 0,0"
             style="fill:#2848a3;fill-opacity:1;fill-rule:nonzero;stroke:none"
             id="path4344"
             inkscape:connector-curvature="0" /></g><g
           id="g4346"
           transform="translate(610.1735,456.723)"><path
             d="m 0,0 c -0.482,0.143 -1.192,0.014 -1.221,0.665 -0.02,0.445 0.536,0.689 1.007,0.64 C 0.3,1.252 0.869,1.048 0.884,0.457 0.897,-0.078 0.326,0.1 0,0"
             style="fill:#2848a3;fill-opacity:1;fill-rule:nonzero;stroke:none"
             id="path4348"
             inkscape:connector-curvature="0" /></g><g
           id="g4350"
           transform="translate(608.4025,455.9503)"><path
             d="m 0,0 c -0.586,-0.743 -0.586,-0.743 -0.945,-0.578 0.241,0.145 0.285,0.4 0.388,0.635 C -0.35,0.524 -0.153,0.355 0,0"
             style="fill:#2848a3;fill-opacity:1;fill-rule:nonzero;stroke:none"
             id="path4352"
             inkscape:connector-curvature="0" /></g><g
           id="g4354"
           transform="translate(607.2734,394.1263)"><path
             d="M 0,0 18.184,23.402 18.184,0 0,0 Z m 18.184,28.281 -38.967,-50.179 2.35,-1.825 16.121,20.747 20.496,0 0,-20.224 2.975,0 0,51.481 -2.975,0 z"
             style="fill:#050606;fill-opacity:1;fill-rule:nonzero;stroke:none"
             id="path4356"
             inkscape:connector-curvature="0" /></g><g
           id="g4358"
           transform="translate(539.0515,420.051)"><path
             d="m 0,0 -2.106,2.106 -28.187,-30.851 2.197,-2.007 13.802,15.107 0,-33.751 2.976,0 0,37.008 L 0,0 Z"
             style="fill:#050606;fill-opacity:1;fill-rule:nonzero;stroke:none"
             id="path4360"
             inkscape:connector-curvature="0" /></g><g
           id="g4362"
           transform="translate(637.9969,393.2512)"><path
             d="M 0,0 0,34.195 26.902,7.409 26.902,0 0,0 Z m 0,38.374 -2.976,0 0,-38.374 0,0 0,-2.976 0,0 0,-19.62 2.976,0 0,19.62 26.902,0 2.976,0 0,2.976 0,8.749 L 0,38.374 Z"
             style="fill:#050606;fill-opacity:1;fill-rule:nonzero;stroke:none"
             id="path4364"
             inkscape:connector-curvature="0" /></g><g
           id="g4366"
           transform="translate(545.1219,373.6308)"><path
             d="m 0,0 0,18.133 18.691,0 0,2.975 -18.691,0 0,31.956 17.475,19.128 -2.196,2.007 -18.255,-19.98 0,-0.658 0,0 0,-53.561 0,-2.976 2.976,0 34.313,0 0,2.976 L 0,0 Z"
             style="fill:#050606;fill-opacity:1;fill-rule:nonzero;stroke:none"
             id="path4368"
             inkscape:connector-curvature="0" /></g><g
           id="g4370"
           transform="translate(550.6082,447.8297)"><path
             d="m 0,0 -5.486,-6.69 0,-7.625 3.533,4.138 L 0,0 Z"
             style="fill:#050606;fill-opacity:1;fill-rule:nonzero;stroke:none"
             id="path4372"
             inkscape:connector-curvature="0" /></g><g
           id="g4374"
           transform="translate(632.9534,425.5313)"><path
             d="m 0,0 -2.207,0 -7.081,5.469 7.599,0 L 0,0 Z"
             style="fill:#050606;fill-opacity:1;fill-rule:nonzero;stroke:none"
             id="path4376"
             inkscape:connector-curvature="0" /></g><path
           d="m 596.481,472.632 -2.727,0 0,13.881 2.727,0 0,-13.881 z"
           style="fill:#d2e742;fill-opacity:1;fill-rule:nonzero;stroke:#050606;stroke-width:0.5;stroke-linecap:butt;stroke-linejoin:miter;stroke-miterlimit:10;stroke-dasharray:none;stroke-opacity:1"
           id="path4378"
           inkscape:connector-curvature="0" /><g
           id="g4380"
           transform="translate(581.9384,469.6077)"><path
             d="M 0,0 -2.391,-1.31 -9.06,10.864 -6.669,12.174 0,0 Z"
             style="fill:#d2e742;fill-opacity:1;fill-rule:nonzero;stroke:none"
             id="path4382"
             inkscape:connector-curvature="0" /></g><g
           id="g4384"
           transform="translate(581.9384,469.6077)"><path
             d="M 0,0 -2.391,-1.31 -9.06,10.864 -6.669,12.174 0,0 Z"
             style="fill:none;stroke:#050606;stroke-width:0.5;stroke-linecap:butt;stroke-linejoin:miter;stroke-miterlimit:10;stroke-dasharray:none;stroke-opacity:1"
             id="path4386"
             inkscape:connector-curvature="0" /></g><g
           id="g4388"
           transform="translate(570.6373,459.9681)"><path
             d="M 0,0 -1.468,-2.298 -13.165,5.175 -11.698,7.472 0,0 Z"
             style="fill:#d2e742;fill-opacity:1;fill-rule:nonzero;stroke:none"
             id="path4390"
             inkscape:connector-curvature="0" /></g><g
           id="g4392"
           transform="translate(570.6373,459.9681)"><path
             d="M 0,0 -1.468,-2.298 -13.165,5.175 -11.698,7.472 0,0 Z"
             style="fill:none;stroke:#050606;stroke-width:0.5;stroke-linecap:butt;stroke-linejoin:miter;stroke-miterlimit:10;stroke-dasharray:none;stroke-opacity:1"
             id="path4394"
             inkscape:connector-curvature="0" /></g><g
           id="g4396"
           transform="translate(595.1176,416.49)"><path
             d="m 0,0 c -14.482,0 -26.223,11.74 -26.223,26.223 0,14.482 11.741,26.222 26.223,26.222 14.482,0 26.223,-11.74 26.223,-26.222 0,-6.73 -2.538,-12.866 -6.705,-17.508 l -3.545,3.529 -1.924,-1.932 3.546,-3.531 C 12.943,2.567 6.771,0 0,0 M 29.197,26.223 C 29.197,42.348 16.125,55.42 0,55.42 c -16.125,0 -29.197,-13.072 -29.197,-29.197 0,-16.125 13.072,-29.197 29.197,-29.197 7.595,0 14.512,2.901 19.705,7.655 l 3.674,-3.659 1.924,1.933 -3.673,3.657 c 4.702,5.182 7.567,12.062 7.567,19.611"
             style="fill:#36b23f;fill-opacity:1;fill-rule:nonzero;stroke:none"
             id="path4398"
             inkscape:connector-curvature="0" /></g><g
           id="g4400"
           transform="translate(595.1176,416.49)"><path
             d="m 0,0 c -14.482,0 -26.223,11.74 -26.223,26.223 0,14.482 11.741,26.222 26.223,26.222 14.482,0 26.223,-11.74 26.223,-26.222 0,-6.73 -2.538,-12.866 -6.705,-17.508 l -3.545,3.529 -1.924,-1.932 3.546,-3.531 C 12.943,2.567 6.771,0 0,0 Z M 29.197,26.223 C 29.197,42.348 16.125,55.42 0,55.42 c -16.125,0 -29.197,-13.072 -29.197,-29.197 0,-16.125 13.072,-29.197 29.197,-29.197 7.595,0 14.512,2.901 19.705,7.655 l 3.674,-3.659 1.924,1.933 -3.673,3.657 c 4.702,5.182 7.567,12.062 7.567,19.611 z"
             style="fill:none;stroke:#050606;stroke-width:0.5;stroke-linecap:butt;stroke-linejoin:miter;stroke-miterlimit:10;stroke-dasharray:none;stroke-opacity:1"
             id="path4402"
             inkscape:connector-curvature="0" /></g><g
           id="g4404"
           transform="translate(621.0644,457.6728)"><path
             d="M 0,0 -1.468,2.298 10.229,9.771 11.697,7.473 0,0 Z"
             style="fill:#d2e742;fill-opacity:1;fill-rule:nonzero;stroke:none"
             id="path4406"
             inkscape:connector-curvature="0" /></g><g
           id="g4408"
           transform="translate(621.0644,457.6728)"><path
             d="M 0,0 -1.468,2.298 10.229,9.771 11.697,7.473 0,0 Z"
             style="fill:none;stroke:#050606;stroke-width:0.5;stroke-linecap:butt;stroke-linejoin:miter;stroke-miterlimit:10;stroke-dasharray:none;stroke-opacity:1"
             id="path4410"
             inkscape:connector-curvature="0" /></g><g
           id="g4412"
           transform="translate(610.6858,468.2992)"><path
             d="M 0,0 -2.391,1.31 4.276,13.484 6.668,12.174 0,0 Z"
             style="fill:#d2e742;fill-opacity:1;fill-rule:nonzero;stroke:none"
             id="path4414"
             inkscape:connector-curvature="0" /></g><g
           id="g4416"
           transform="translate(610.6858,468.2992)"><path
             d="M 0,0 -2.391,1.31 4.276,13.484 6.668,12.174 0,0 Z"
             style="fill:none;stroke:#050606;stroke-width:0.5;stroke-linecap:butt;stroke-linejoin:miter;stroke-miterlimit:10;stroke-dasharray:none;stroke-opacity:1"
             id="path4418"
             inkscape:connector-curvature="0" /></g></g></g></g></svg>